<svg width="385" height="284" viewBox="0 0 385 284" fill="none" xmlns="http://www.w3.org/2000/svg">
<g filter="url(#filter0_f)">
<rect x="9" y="237.693" width="41" height="41" transform="rotate(-21 9 237.693)" fill="#1E9E78"/>
<rect x="9" y="237.693" width="41" height="41" transform="rotate(-21 9 237.693)" fill="#1E9E78"/>
<rect x="9" y="237.693" width="41" height="41" transform="rotate(-21 9 237.693)" fill="#1E9E78"/>
</g>
<g filter="url(#filter1_f)">
<rect x="165" y="113.748" width="56.9931" height="56.9931" transform="rotate(-78 165 113.748)" fill="#1E9E78"/>
<rect x="165" y="113.748" width="56.9931" height="56.9931" transform="rotate(-78 165 113.748)" fill="#1E9E78"/>
<rect x="165" y="113.748" width="56.9931" height="56.9931" transform="rotate(-78 165 113.748)" fill="#F5A13D"/>
</g>
<g filter="url(#filter2_f)">
<rect x="304" y="183.927" width="17" height="43" transform="rotate(-40 304 183.927)" fill="#FFC45A"/>
</g>
<g filter="url(#filter3_f)">
<path d="M65.6663 28.4091L50.4785 78.7928L13.971 38.2471L65.6663 28.4091Z" fill="#F97070"/>
</g>
<g filter="url(#filter4_f)">
<path d="M349.41 45.3686L327.111 119.341L273.512 59.8126L349.41 45.3686Z" fill="#D381CB"/>
</g>
<g filter="url(#filter5_f)">
<rect x="13" y="139.272" width="18.6798" height="96.9121" transform="rotate(-78 13 139.272)" fill="#1E9E78"/>
<rect x="13" y="139.272" width="18.6798" height="96.9121" transform="rotate(-78 13 139.272)" fill="#1E9E78"/>
<rect x="13" y="139.272" width="18.6798" height="96.9121" transform="rotate(-78 13 139.272)" fill="#17B6C0"/>
</g>
<defs>
<filter id="filter0_f" x="1" y="215" width="68.9699" height="68.9699" filterUnits="userSpaceOnUse" color-interpolation-filters="sRGB">
<feFlood flood-opacity="0" result="BackgroundImageFix"/>
<feBlend mode="normal" in="SourceGraphic" in2="BackgroundImageFix" result="shape"/>
<feGaussianBlur stdDeviation="4" result="effect1_foregroundBlur"/>
</filter>
<filter id="filter1_f" x="157" y="50" width="83.5972" height="83.5972" filterUnits="userSpaceOnUse" color-interpolation-filters="sRGB">
<feFlood flood-opacity="0" result="BackgroundImageFix"/>
<feBlend mode="normal" in="SourceGraphic" in2="BackgroundImageFix" result="shape"/>
<feGaussianBlur stdDeviation="4" result="effect1_foregroundBlur"/>
</filter>
<filter id="filter2_f" x="296" y="165" width="56.6626" height="59.8673" filterUnits="userSpaceOnUse" color-interpolation-filters="sRGB">
<feFlood flood-opacity="0" result="BackgroundImageFix"/>
<feBlend mode="normal" in="SourceGraphic" in2="BackgroundImageFix" result="shape"/>
<feGaussianBlur stdDeviation="4" result="effect1_foregroundBlur"/>
</filter>
<filter id="filter3_f" x="5.97101" y="0.13623" width="85.949" height="86.6566" filterUnits="userSpaceOnUse" color-interpolation-filters="sRGB">
<feFlood flood-opacity="0" result="BackgroundImageFix"/>
<feBlend mode="normal" in="SourceGraphic" in2="BackgroundImageFix" result="shape"/>
<feGaussianBlur stdDeviation="4" result="effect1_foregroundBlur"/>
</filter>
<filter id="filter4_f" x="265.512" y="7.60452" width="118.697" height="119.736" filterUnits="userSpaceOnUse" color-interpolation-filters="sRGB">
<feFlood flood-opacity="0" result="BackgroundImageFix"/>
<feBlend mode="normal" in="SourceGraphic" in2="BackgroundImageFix" result="shape"/>
<feGaussianBlur stdDeviation="4" result="effect1_foregroundBlur"/>
</filter>
<filter id="filter5_f" x="9" y="117" width="106.678" height="46.4207" filterUnits="userSpaceOnUse" color-interpolation-filters="sRGB">
<feFlood flood-opacity="0" result="BackgroundImageFix"/>
<feBlend mode="normal" in="SourceGraphic" in2="BackgroundImageFix" result="shape"/>
<feGaussianBlur stdDeviation="2" result="effect1_foregroundBlur"/>
</filter>
</defs>
</svg>
